# xmcd CD database file
#
# Track frame offsets:
#	150
#	20010
#	33165
#	49860
#	65515
#	82527
#	100240
#	114662
#	136165
#	150457
#	167317
#
# Disc length: 2523 seconds
#
# Revision: 3
# Processed by: cddbd v1.5.1PL0 Copyright (c) Steve Scherf et al.
# Submitted via: CDex 1.51
#
DISCID=7909d90b
DTITLE=Hank Williams Jr. - I'm One Of You
DYEAR=2003
DGENRE=Country
TTITLE0=Amos Moses
TTITLE1=Liquor To Like Her
TTITLE2=Just Enough To Get In Trouble
TTITLE3=I'm One Of You
TTITLE4=What's On The Bar
TTITLE5=Games People Play
TTITLE6=Waylon's Guitar
TTITLE7=Why Can't We All Just Get Along - Neck? - Jambalaya
TTITLE8=American Offline
TTITLE9=Guitar Money
TTITLE10=Devil In The Bottle
EXTD=YEAR: 2003
EXTT0=
EXTT1=
EXTT2=
EXTT3=
EXTT4=
EXTT5=
EXTT6=
EXTT7=
EXTT8=
EXTT9=
EXTT10=
PLAYORDER=
